<svg xmlns="http://www.w3.org/2000/svg" width="439" height="326" viewBox="0 0 439 326" version="1.1"><path d="M 88.989 64.250 C 86.458 68.402, 86.480 71.069, 89.073 74.365 C 92.325 78.500, 93 77.578, 93 69 C 93 60.222, 92.097 59.153, 88.989 64.250 M 311.608 80.825 C 310.971 81.855, 355.570 107.384, 356.743 106.659 C 357.210 106.370, 360.006 107.454, 362.956 109.067 C 368.252 111.963, 371.006 112.711, 370.993 111.250 C 370.983 110.029, 354.098 100.821, 353.053 101.467 C 352.527 101.793, 344.086 97.620, 334.298 92.195 C 324.509 86.770, 315.515 81.806, 314.311 81.163 C 313.107 80.520, 311.891 80.368, 311.608 80.825 M 250.675 189.619 C 249.672 193.803, 248.636 197.786, 248.373 198.470 C 248.104 199.171, 249.229 200.266, 250.948 200.978 C 252.627 201.674, 254 202.890, 254 203.680 C 254 204.471, 254.437 204.848, 254.971 204.518 C 256.170 203.777, 262 206.686, 262 208.026 C 262 208.562, 262.661 209, 263.469 209 C 264.360 209, 264.712 208.413, 264.365 207.508 C 263.483 205.210, 266.460 204.669, 269.981 206.490 C 273.077 208.091, 272.691 211.863, 269.554 210.659 C 268.935 210.422, 268.429 211.009, 268.429 211.964 C 268.429 213.135, 269.007 213.549, 270.203 213.237 C 271.179 212.981, 271.763 212.425, 271.500 212 C 271.237 211.574, 271.660 210.697, 272.439 210.050 C 273.934 208.810, 280 211.096, 280 212.901 C 280 213.368, 281.296 214.009, 282.879 214.326 C 284.463 214.643, 286.456 215.599, 287.308 216.451 C 289.814 218.957, 290.741 218.302, 292.553 212.750 C 294.874 205.638, 294.651 205.827, 298.707 207.522 C 300.687 208.349, 302.575 208.734, 302.904 208.376 C 303.232 208.019, 303.050 207.541, 302.500 207.316 C 301.950 207.090, 292.050 201.351, 280.500 194.564 C 268.685 187.620, 259.228 182.656, 258.877 183.214 C 258.472 183.861, 257.536 183.822, 256.193 183.103 C 252.863 181.321, 252.587 181.647, 250.675 189.619 M 242.857 229.890 C 243.659 230.399, 243.960 231.551, 243.593 232.708 C 243.131 234.161, 243.620 234.961, 245.486 235.812 C 246.869 236.442, 248 237.417, 248 237.979 C 248 239.391, 249.885 239.258, 251.405 237.738 C 253.241 235.902, 252.999 233.187, 251.045 233.698 C 250.154 233.932, 248.180 232.970, 246.661 231.561 C 245.141 230.153, 243.358 229.007, 242.698 229.015 C 241.886 229.026, 241.937 229.308, 242.857 229.890 M 231 232.822 C 231 235.383, 219.526 249.353, 209.910 258.500 L 201.500 266.500 217.336 275.750 C 236.427 286.901, 244.546 286.132, 260.778 271.633 C 266.950 266.120, 285.571 235, 282.698 235 C 281.882 235, 280.994 235.574, 280.725 236.275 C 280.456 236.976, 277.358 239.056, 273.842 240.897 L 267.449 244.244 264.163 242.245 C 261.535 240.647, 260.419 240.463, 258.592 241.325 C 256.360 242.378, 256.396 242.447, 260.154 244.306 C 264.607 246.510, 264.998 247.711, 261.542 248.579 C 259.882 248.995, 258.127 248.514, 256.137 247.098 C 254.517 245.944, 252.880 245, 252.500 245 C 252.120 245, 250.389 243.988, 248.654 242.752 C 246.919 241.516, 244.150 239.813, 242.500 238.969 C 240.850 238.124, 239.597 236.932, 239.716 236.319 C 239.839 235.683, 239.113 235.419, 238.022 235.704 C 236.825 236.018, 235.160 235.251, 233.556 233.647 C 231.450 231.541, 231 231.396, 231 232.822 M 219.654 281.679 C 218.919 282.414, 230.213 289.299, 233.612 290.188 C 234.977 290.545, 236.086 290.093, 236.852 288.865 C 237.891 287.202, 237.695 287, 235.052 287 C 233.422 287, 229.798 285.650, 227 284 C 221.663 280.853, 220.764 280.569, 219.654 281.679" stroke="none" fill="#700dfa" fill-rule="evenodd"/><path d="M 95.250 59.299 C 91.927 60.785, 91.776 77.477, 95.075 78.524 C 98.052 79.469, 98.102 79.279, 97.786 68.277 C 97.501 58.333, 97.491 58.297, 95.250 59.299 M 303 75.993 C 303 76.840, 310.028 81, 311.460 81 C 313.344 81, 311.330 79.073, 307.500 77.212 C 305.025 76.010, 303 75.461, 303 75.993 M 344.669 96.664 C 344.043 97.290, 350.634 101.902, 352.250 101.969 C 354.151 102.048, 352.666 100.001, 349.443 98.099 C 345.419 95.724, 345.565 95.768, 344.669 96.664 M 242.575 185.554 C 241.200 191.826, 240.342 193.962, 239.351 193.581 C 236.172 192.361, 238.342 194.114, 241.750 195.519 C 243.813 196.369, 246.022 197.756, 246.659 198.600 C 247.853 200.180, 250.396 193.465, 251.746 185.171 C 252.297 181.784, 252.756 181.644, 257.250 183.494 C 258.282 183.918, 259 183.770, 259 183.133 C 259 181.790, 253.203 178.604, 250.500 178.462 C 249.400 178.404, 247.589 178.053, 246.475 177.682 C 244.630 177.068, 244.282 177.770, 242.575 185.554 M 220.733 234.022 C 218.822 238.205, 217.335 240.033, 215.083 240.966 C 213.401 241.662, 212.239 242.578, 212.500 243.001 C 213.023 243.846, 199.713 256.831, 195.481 259.604 L 192.826 261.344 196.663 263.667 C 201.833 266.797, 201.121 267.111, 211.208 257.250 C 229 239.855, 232.790 233.480, 227.155 230.422 L 223.326 228.344 220.733 234.022 M 212.695 277.353 C 212.370 278.200, 213.514 279.351, 215.733 280.410 C 220.727 282.791, 221.916 280.883, 217.118 278.187 C 214.037 276.455, 213.107 276.279, 212.695 277.353" stroke="none" fill="#7d15fa" fill-rule="evenodd"/><path d="M 290.251 68.259 C 290.741 69.733, 302.057 76.276, 302.812 75.522 C 303.536 74.798, 303.301 74.624, 296.170 70.594 C 292.688 68.627, 290.025 67.576, 290.251 68.259 M 332 89.986 C 332 90.830, 342.970 97, 344.471 97 C 346.400 97, 344.153 94.996, 339.123 92.231 C 332.754 88.729, 332 88.492, 332 89.986 M 231.073 176.505 C 230.443 180.118, 230.227 183.559, 230.592 184.149 C 230.957 184.740, 230.642 185.603, 229.892 186.067 C 227.930 187.279, 236.829 194, 240.396 194 C 240.576 194, 241.562 190.177, 242.586 185.504 C 244.564 176.485, 244.328 176.707, 249.750 178.744 C 250.438 179.003, 251 178.828, 250.999 178.357 C 250.998 177.140, 240.900 171.520, 238.500 171.400 C 237.400 171.345, 235.536 170.992, 234.358 170.617 C 232.385 169.988, 232.127 170.449, 231.073 176.505 M 210.748 224.558 C 208.270 227.845, 208.424 228.140, 214.459 231.667 L 219.879 234.834 221.515 232.336 C 223.716 228.978, 223.039 227.753, 217.338 224.772 L 212.497 222.240 210.748 224.558 M 197.717 239.481 C 188.841 248.858, 188.435 250, 193.977 250 C 196.476 250, 217 237.847, 217 236.367 C 217 235.257, 208.519 229.876, 207.124 230.100 C 206.781 230.156, 202.547 234.377, 197.717 239.481 M 204 247.500 C 196.224 252.061, 191.895 252.954, 188.473 250.702 C 186.751 249.569, 186.139 249.743, 183.670 252.062 L 180.841 254.719 186.487 257.906 C 193.577 261.907, 193.856 261.808, 204.672 251.503 C 214.708 241.939, 214.598 241.284, 204 247.500 M 202.411 271.143 C 201.679 272.329, 201.369 272.055, 207.295 275.475 C 211.820 278.087, 213.957 278.358, 212.591 276.147 C 211.425 274.261, 203.034 270.136, 202.411 271.143" stroke="none" fill="#861bf6" fill-rule="evenodd"/><path d="M 117 51.376 C 117 51.657, 119.713 53.189, 123.029 54.780 C 126.345 56.372, 128.900 57.185, 128.707 56.587 C 128.182 54.961, 117 49.984, 117 51.376 M 100.811 57.142 C 96.936 58.560, 95.927 79.568, 99.700 80.285 C 100.955 80.524, 102.123 80.123, 102.419 79.352 C 102.704 78.608, 104.308 78, 105.983 78 C 112.300 78, 114.900 68.523, 110.823 60.360 C 108.488 55.685, 106.520 55.053, 100.811 57.142 M 120.080 78.654 C 118.199 79.474, 115.853 79.933, 114.867 79.675 C 113.881 79.418, 112.552 79.835, 111.914 80.603 C 110.966 81.746, 111.297 82, 113.728 82 C 117.772 82, 122.720 80.171, 123.388 78.430 C 123.690 77.644, 123.839 77.037, 123.719 77.082 C 123.598 77.126, 121.961 77.834, 120.080 78.654 M 100.184 86.661 C 100.647 90.559, 104 90.779, 104 86.912 C 104 84.635, 103.549 84, 101.934 84 C 100.284 84, 99.931 84.536, 100.184 86.661 M 119.366 93.238 C 115.637 94.138, 115.175 94.591, 114.654 97.868 C 113.749 103.568, 113.542 104.187, 110.711 109.676 C 106.290 118.248, 97.271 126.136, 89.127 128.555 C 86.307 129.392, 84.003 130.398, 84.006 130.789 C 84.197 155.153, 121.509 124.039, 125.425 96.250 C 126.085 91.561, 126.160 91.598, 119.366 93.238" stroke="none" fill="#8620e5" fill-rule="evenodd"/><path d="M 112.543 97.750 C 110.183 110.763, 95.207 127, 85.563 127 C 84.703 127, 84 127.675, 84 128.500 C 84 129.325, 84.112 129.995, 84.250 129.989 C 94.531 129.544, 111.083 114.390, 113.729 103 C 114.929 97.834, 115.148 94, 114.243 94 C 113.682 94, 112.917 95.688, 112.543 97.750" stroke="none" fill="#8a26d9" fill-rule="evenodd"/><path d="M 261 51.815 C 261 52.263, 262.462 53.361, 264.250 54.255 C 266.038 55.149, 269.839 57.253, 272.697 58.930 C 275.556 60.608, 278.124 61.609, 278.404 61.155 C 278.685 60.701, 275.145 58.230, 270.537 55.665 C 261.794 50.796, 261 50.476, 261 51.815 M 127.033 67.905 C 127 74.247, 127.020 74.292, 129 72.500 C 131.539 70.203, 131.551 66.883, 129.033 63.861 L 127.067 61.500 127.033 67.905 M 308 75.933 C 308 77.234, 320.905 83.962, 321.514 82.978 C 321.786 82.537, 319.121 80.562, 315.592 78.588 C 308.710 74.740, 308 74.492, 308 75.933 M 92.173 84.564 C 92.353 86.094, 93.097 87.542, 93.827 87.782 C 94.762 88.089, 95.057 87.397, 94.827 85.436 C 94.647 83.906, 93.903 82.458, 93.173 82.218 C 92.238 81.911, 91.943 82.603, 92.173 84.564 M 98.343 95.886 C 96.663 102.890, 91.016 109.903, 85.306 112.074 C 82.785 113.032, 81.945 118, 84.304 118 C 92.796 118, 108.955 95.180, 101.475 93.751 C 99.419 93.357, 98.858 93.740, 98.343 95.886 M 206.591 157.399 C 204.499 165.191, 205.784 169.565, 211 172.403 C 213.750 173.900, 216 175.547, 216 176.062 C 216 181.706, 219.635 175.772, 220.521 168.682 C 221.151 163.636, 221.414 163.151, 223.046 164.025 C 229.694 167.582, 227.230 163.851, 220.322 159.898 C 212.653 155.511, 207.357 154.546, 206.591 157.399 M 187.112 211.843 L 185.029 214.768 191.765 218.294 L 198.500 221.820 200.363 219.323 C 202.513 216.440, 202.383 216.270, 194.847 212.069 L 189.194 208.919 187.112 211.843 M 177.500 222.410 C 174.200 225.669, 169.636 229.523, 167.357 230.976 L 163.214 233.616 170.652 237.760 L 178.091 241.904 184.198 236.702 C 187.556 233.841, 191.693 229.778, 193.390 227.673 C 196.825 223.411, 197.234 224.114, 188.500 219.262 L 183.500 216.484 177.500 222.410 M 158.250 236.805 C 153.850 238.914, 153.978 239.150, 162.070 243.834 L 169.139 247.927 172.445 245.760 L 175.750 243.593 171.406 240.839 C 162.746 235.346, 161.859 235.074, 158.250 236.805 M 179.521 257.966 C 178.924 258.932, 179.982 259.713, 188.149 264.335 C 191.495 266.229, 192.933 266.616, 193.278 265.717 C 193.864 264.192, 180.371 256.591, 179.521 257.966" stroke="none" fill="#ac34f4" fill-rule="evenodd"/><path d="M 250.222 45.165 C 250.718 46.655, 260.774 52.175, 261.336 51.266 C 261.609 50.823, 259.149 49.052, 255.867 47.332 C 252.586 45.611, 250.045 44.636, 250.222 45.165 M 299.669 70.664 C 299.043 71.290, 305.634 75.902, 307.250 75.969 C 309.151 76.048, 307.666 74.001, 304.443 72.099 C 300.419 69.724, 300.565 69.768, 299.669 70.664 M 96.401 94.750 C 94.516 100.899, 91.585 105.334, 87.505 108.210 C 82.758 111.555, 81.744 113.141, 84.874 112.323 C 90.076 110.962, 96.664 102.877, 98.377 95.750 C 99.105 92.721, 97.302 91.809, 96.401 94.750 M 197.739 157.343 C 197.410 161.906, 197.612 164.744, 198.297 165.174 C 199.033 165.636, 198.940 166.367, 198 167.500 C 196.838 168.900, 196.839 169.282, 198.007 170.004 C 198.897 170.554, 199.795 170.295, 200.543 169.272 C 201.263 168.288, 202.514 167.901, 203.850 168.251 C 205.821 168.766, 206.001 168.426, 206.014 164.156 C 206.036 156.516, 206.655 155.308, 210.319 155.756 C 213.435 156.137, 213.407 156.090, 209 153.446 C 206.525 151.961, 203.095 150.621, 201.378 150.466 L 198.255 150.186 197.739 157.343 M 179.664 207.171 L 177.182 210.341 181.213 212.335 L 185.243 214.329 187.099 211.915 C 189.463 208.840, 189.450 208.278, 187 207.500 C 185.900 207.151, 185 206.221, 185 205.433 C 185 202.968, 182.252 203.863, 179.664 207.171 M 171.744 215.478 C 169.675 218.323, 159.027 226.685, 156.088 227.772 C 154.290 228.437, 154.597 228.820, 158.648 230.969 L 163.251 233.411 166.572 231.455 C 171.343 228.647, 183 218.102, 183 216.596 C 183 212.912, 174.243 212.042, 171.744 215.478 M 148.672 231.947 L 144.845 233.733 149.922 236.857 C 152.715 238.576, 155 239.590, 155 239.112 C 155 238.634, 156.350 237.683, 158 237 C 161.463 235.566, 156.581 229.068, 152.802 230.081 C 152.636 230.125, 150.778 230.965, 148.672 231.947 M 171.428 253.117 C 171.082 253.676, 170.957 254.250, 171.150 254.393 C 174.803 257.103, 178.958 258.877, 179.521 257.966 C 179.895 257.362, 180.043 256.753, 179.850 256.614 C 176.512 254.204, 171.931 252.302, 171.428 253.117" stroke="none" fill="#b03de8" fill-rule="evenodd"/><path d="" stroke="none" fill="#a13eca" fill-rule="evenodd"/><path d="M 223.592 30.378 C 223.918 31.228, 225.112 32.218, 226.245 32.578 C 227.378 32.937, 230.528 34.542, 233.245 36.145 C 235.963 37.747, 237.998 38.494, 237.768 37.805 C 237.539 37.116, 234.122 34.816, 230.175 32.693 C 225.443 30.148, 223.201 29.359, 223.592 30.378 M 284.193 61.881 C 283.459 62.334, 284.694 63.424, 287.468 64.772 C 289.918 65.962, 292.128 66.602, 292.380 66.194 C 293.090 65.046, 285.522 61.059, 284.193 61.881 M 91.996 93.781 C 91.991 97.443, 88.625 102.738, 84.985 104.808 C 80.911 107.127, 80.877 109.632, 84.948 107.527 C 90.667 104.569, 96.848 92.923, 93.400 91.600 C 92.412 91.221, 91.999 91.862, 91.996 93.781 M 187.213 140 C 187.591 142.573, 187.334 143, 185.409 143 C 180.242 143, 180 143.516, 180 154.542 C 180 160.222, 179.569 166.003, 179.043 167.387 C 177.900 170.393, 179.219 170.132, 185.313 166.146 L 189.125 163.651 188.813 153.898 L 188.500 144.145 191.406 144.729 L 194.313 145.313 192.156 143.156 C 190.970 141.970, 190 140.100, 190 139 C 190 137.826, 189.333 137, 188.387 137 C 187.163 137, 186.879 137.724, 187.213 140 M 164.654 198.008 C 160.589 204.890, 145.182 215.503, 134.125 219.038 C 130.481 220.203, 126.850 221.366, 126.056 221.621 C 125.156 221.911, 126.663 223.318, 130.047 225.350 L 135.482 228.614 143.491 224.708 C 160.423 216.449, 180.270 198, 172.223 198 C 171.245 198, 169.524 197.355, 168.399 196.567 C 166.521 195.251, 166.213 195.370, 164.654 198.008 M 154 243.980 C 154 244.837, 161.016 249, 162.460 249 C 164.113 249, 162.560 246.703, 159.750 244.989 C 156.210 242.830, 154 242.443, 154 243.980" stroke="none" fill="#bb4fce" fill-rule="evenodd"/><path d="M 220.120 30.812 C 218.642 33.636, 217.955 38.424, 218.833 39.786 C 219.398 40.662, 220.047 39.788, 220.871 37.036 C 221.536 34.816, 222.460 33, 222.924 33 C 223.387 33, 223.978 32.191, 224.237 31.202 C 224.858 28.826, 221.334 28.493, 220.120 30.812 M 277 57.974 C 277 59.224, 282.783 62.239, 284.245 61.752 C 284.855 61.548, 283.759 60.396, 281.809 59.191 C 277.874 56.759, 277 56.538, 277 57.974 M 90 92.491 C 90 96.070, 87.605 100.393, 84.280 102.815 C 80.845 105.317, 81.961 106.911, 85.517 104.581 C 90.460 101.342, 93.968 92.334, 91 90.500 C 90.431 90.148, 90 91.006, 90 92.491 M 191.815 126.250 C 189.477 128.115, 186.711 137, 188.469 137 C 189.224 137, 190.707 134.362, 191.843 131 C 192.957 127.700, 193.759 125, 193.626 125 C 193.492 125, 192.677 125.563, 191.815 126.250 M 175 147.238 C 171.520 149.248, 171.499 149.304, 171.291 156.880 C 171.175 161.071, 170.404 166.729, 169.577 169.453 C 167.689 175.674, 167.896 175.837, 173.507 172.549 C 179.022 169.317, 184.239 144.387, 179.250 145.108 C 178.838 145.168, 176.925 146.127, 175 147.238 M 152.745 197.592 C 142.762 207.050, 126.798 214, 115.056 214 L 110.532 214 117.470 218.054 L 124.408 222.109 132.454 219.586 C 152.065 213.436, 170.884 196.812, 162.611 192.947 L 159.287 191.394 152.745 197.592 M 145.600 238.839 C 144.748 240.216, 153.006 244.394, 154.206 243.194 C 154.915 242.485, 153.962 241.511, 151.159 240.081 C 146.550 237.730, 146.317 237.678, 145.600 238.839" stroke="none" fill="#be58c0" fill-rule="evenodd"/><path d="M 215.672 44.647 C 214.679 48.140, 214.397 50.887, 214.935 51.848 C 215.827 53.442, 219 44.835, 219 40.818 C 219 37.130, 217.232 39.164, 215.672 44.647 M 269 53.418 C 269 53.947, 275.518 58, 276.368 58 C 278.079 58, 276.663 55.877, 274.050 54.526 C 271.185 53.044, 269 52.565, 269 53.418 M 84.281 58.021 C 83.302 59.832, 81.713 62.143, 80.750 63.157 C 78.889 65.116, 78.446 67, 79.845 67 C 81.028 67, 83.264 64.152, 85.506 59.789 C 87.880 55.170, 86.726 53.503, 84.281 58.021 M 88 92.050 C 88 94.551, 85.692 99.181, 83.566 100.945 C 81.298 102.828, 81.643 104.261, 84.054 102.971 C 88.186 100.760, 92.289 90, 89 90 C 88.450 90, 88 90.922, 88 92.050 M 194.691 115.163 C 191.526 120.200, 190.075 128.491, 192.894 125.433 C 194.130 124.092, 197.303 113.970, 196.682 113.348 C 196.395 113.061, 195.499 113.878, 194.691 115.163 M 167.020 151.990 C 163.720 153.696, 163.480 154.182, 162.364 161.395 C 161.716 165.586, 159.800 171.968, 158.094 175.612 C 156.392 179.249, 155 182.357, 155 182.519 C 155 183.418, 159.597 181.403, 161.198 179.802 C 162.233 178.767, 164.117 177.526, 165.385 177.044 C 168.071 176.022, 170.462 168.575, 171.540 157.873 C 172.310 150.222, 171.777 149.529, 167.020 151.990 M 148.452 190.120 C 135.492 203.956, 110.952 209.096, 93.048 201.726 C 83.710 197.881, 84.582 198.759, 98.100 206.814 C 108.489 213.004, 110.813 214, 114.870 214 C 132.804 214, 166.289 193.560, 155.750 189.047 C 153.963 188.281, 152.254 187.500, 151.952 187.311 C 151.651 187.123, 150.076 188.386, 148.452 190.120 M 137.258 233.820 C 136.425 234.348, 137.520 235.340, 140.573 236.823 C 146.474 239.690, 148.476 238.498, 142.991 235.383 C 140.684 234.072, 138.729 233.007, 138.648 233.015 C 138.567 233.024, 137.941 233.386, 137.258 233.820" stroke="none" fill="#c461b4" fill-rule="evenodd"/><path d="M 260.175 47.892 C 259.609 48.242, 261.366 49.712, 264.079 51.159 C 266.792 52.606, 269.236 53.426, 269.511 52.983 C 270.197 51.871, 261.452 47.102, 260.175 47.892 M 213.732 51.643 C 212.422 53.812, 209.156 67.055, 208.712 72 L 208.217 77.500 209.483 73.500 C 214.492 57.677, 215.672 53.087, 215.007 52.012 C 214.591 51.338, 214.017 51.172, 213.732 51.643 M 81.012 60.482 C 79.025 63.370, 78.490 64.749, 79.507 64.359 C 80.944 63.808, 85.671 56, 84.568 56 C 84.309 56, 82.708 58.017, 81.012 60.482 M 85.743 90.438 C 86.033 91.951, 85.382 94.381, 84.112 96.534 C 81.484 100.989, 81.390 102.862, 83.909 100.583 C 87.691 97.160, 89.283 89.243, 86.381 88.289 C 85.677 88.057, 85.441 88.854, 85.743 90.438 M 201.447 94.281 C 199.546 97.424, 198.963 98.993, 195.709 109.719 C 194.229 114.600, 194.236 114.870, 195.817 113.882 C 197.242 112.992, 204.488 92.155, 203.660 91.326 C 203.514 91.181, 202.519 92.510, 201.447 94.281 M 157.316 157.527 C 153.724 159.680, 152.897 160.844, 151.469 165.755 C 145.404 186.617, 124.433 199.267, 103.457 194.715 L 95.775 193.048 91.260 195.694 C 80.249 202.146, 110.197 208.273, 127.145 203.036 C 136.829 200.043, 151 190.120, 151 186.332 C 151 185.638, 151.821 184.631, 152.825 184.094 C 156.429 182.165, 163 164.580, 163 156.864 C 163 154.440, 162.337 154.517, 157.316 157.527 M 128 228.980 C 128 229.999, 135.141 234, 136.960 234 C 139.086 234, 137.868 232.433, 134.044 230.250 C 129.780 227.815, 128 227.441, 128 228.980" stroke="none" fill="#c96aa8" fill-rule="evenodd"/><path d="M 204.643 80.615 C 202.556 87.554, 200.623 93.966, 200.348 94.865 C 200.072 95.764, 201.004 94.700, 202.419 92.500 C 205.862 87.146, 210.885 68, 208.847 68 C 208.621 68, 206.729 73.677, 204.643 80.615 M 82.415 85.973 C 84.412 89.087, 84.441 92.925, 82.489 95.712 C 81.585 97.003, 81.367 98.109, 81.947 98.467 C 85.508 100.668, 86.798 89.978, 83.415 86.306 C 81.150 83.847, 81.026 83.806, 82.415 85.973 M 148.797 162.416 C 146.462 163.709, 144.446 165.903, 143.339 168.357 C 137.526 181.247, 122.382 190.271, 109.184 188.708 C 104.334 188.134, 95.205 191.772, 97.671 193.297 C 114.266 203.553, 144.881 188.041, 151.387 166.080 C 153.293 159.647, 153.436 159.849, 148.797 162.416 M 121.670 224.663 C 120.597 225.737, 126.813 229.009, 128.613 228.318 C 129.913 227.819, 129.547 227.306, 126.880 225.885 C 123.051 223.844, 122.596 223.738, 121.670 224.663" stroke="none" fill="#cf7698" fill-rule="evenodd"/><path d="M 242.626 37.707 C 242.284 38.049, 243.691 39.366, 245.752 40.633 C 249.668 43.041, 252.565 43.724, 251.491 41.986 C 250.555 40.471, 243.343 36.990, 242.626 37.707 M 80.851 90.624 C 81.085 94.396, 81.497 95.825, 82.086 94.896 C 83.368 92.870, 83.196 88.651, 81.750 86.669 C 80.707 85.240, 80.558 85.895, 80.851 90.624 M 124.539 176.343 C 111.929 183.711, 110.882 184.530, 113.717 184.808 C 121.281 185.550, 131.357 180.208, 136.868 172.534 C 141.057 166.702, 141.019 166.713, 124.539 176.343 M 108.564 216.897 C 107.437 218.720, 116.658 223.742, 118.236 222.164 C 118.912 221.488, 117.576 220.312, 114.174 218.588 C 111.387 217.176, 108.862 216.414, 108.564 216.897" stroke="none" fill="#cf7b8a" fill-rule="evenodd"/><path d="" stroke="none" fill="#b77373" fill-rule="evenodd"/><path d="M 231 32.055 C 234.556 34.485, 242.246 38.087, 242.766 37.567 C 243.457 36.877, 243.582 36.975, 237.822 33.678 C 233.267 31.071, 227.578 29.718, 231 32.055 M 85 164.412 C 85 165.765, 99.787 175, 101.953 175 C 105.072 175, 101.970 171.946, 94.590 167.750 C 85.372 162.509, 85 162.379, 85 164.412 M 95.459 210.067 C 94.604 211.450, 94.500 211.374, 101.500 214.463 C 108.316 217.471, 108.341 217.477, 108.756 216.231 C 109.400 214.301, 96.529 208.335, 95.459 210.067 M 379.750 212.287 C 376.056 214.337, 374 216.123, 374 217.281 C 374 219.105, 380.937 216.014, 384.866 212.439 C 388.169 209.434, 385.057 209.341, 379.750 212.287 M 17.250 231.275 C 14.270 233.095, 12 235.209, 12 236.163 C 12 238.216, 24.921 231.329, 24.970 229.250 C 25.017 227.269, 22.896 227.825, 17.250 231.275 M 374 233.427 C 374 234.645, 383.543 241, 385.372 241 C 387.814 241, 385.073 237.668, 380.515 235.095 C 374.240 231.554, 374 231.492, 374 233.427 M 12.154 251.470 C 12.698 254.143, 25.001 260.726, 24.998 258.341 C 24.996 257.124, 23.076 255.483, 19.331 253.500 C 11.827 249.525, 11.755 249.505, 12.154 251.470 M 416.750 261.758 C 412.283 264.528, 413.005 267.520, 417.500 264.867 C 419.425 263.732, 421 262.172, 421 261.401 C 421 259.592, 420.125 259.666, 416.750 261.758 M 127.177 263.581 C 127.504 265.183, 190.877 302.456, 191.765 301.568 C 193.246 300.088, 188.350 296.842, 159.607 280.250 C 125.847 260.761, 126.689 261.194, 127.177 263.581 M 414 274.717 C 414 275.926, 415.315 277.257, 417.577 278.335 C 422.349 280.611, 422.095 277.912, 417.250 274.855 C 414.097 272.865, 414 272.861, 414 274.717" stroke="none" fill="#dc8e76" fill-rule="evenodd"/><path d="M 78.031 73 C 78.031 74.925, 78.467 77.175, 79 78 C 79.727 79.125, 79.969 78.625, 79.969 76 C 79.969 74.075, 79.533 71.825, 79 71 C 78.273 69.875, 78.031 70.375, 78.031 73 M 245.449 105.917 C 246.026 106.850, 261.456 116, 262.453 116 C 264.645 116, 261.773 113.669, 254.664 109.679 C 246.311 104.990, 244.392 104.207, 245.449 105.917 M 284.021 111.750 C 284.038 112.352, 301.072 122.560, 304.185 123.833 C 308.786 125.715, 302.856 120.997, 295.100 116.605 C 284.987 110.879, 283.984 110.440, 284.021 111.750 M 242 114.522 C 242 115.195, 251.136 121, 252.196 121 C 254.247 121, 252.571 119.260, 248.102 116.750 C 243.183 113.988, 242 113.556, 242 114.522 M 231.001 135.750 C 231.002 136.793, 241.014 142.319, 241.685 141.648 C 242.253 141.080, 233.216 135, 231.804 135 C 231.362 135, 231 135.338, 231.001 135.750 M 76.500 145.754 C 64.657 152.780, 66.668 158.179, 83.538 164.653 C 87.895 166.325, 83.901 161.639, 78.075 158.244 C 69.658 153.339, 69.651 152.852, 77.939 148.338 C 82.510 145.849, 84.989 143.885, 84.993 142.750 C 85.002 140.525, 85.772 140.253, 76.500 145.754 M 86.550 204.266 C 86.921 205.495, 87.619 206.922, 88.101 207.438 C 88.629 208.004, 84.015 211.294, 76.488 215.720 C 59.803 225.531, 59.766 226.270, 75.500 235.225 C 79.900 237.729, 93.287 245.430, 105.250 252.338 C 121.594 261.776, 127 264.471, 127 263.181 C 127 261.982, 117.954 256.238, 97 244.133 C 80.500 234.601, 67.012 226.284, 67.028 225.651 C 67.064 224.130, 91.024 210.436, 93.152 210.721 C 97.760 211.337, 96.798 208.306, 91.402 205.206 C 86.124 202.175, 85.906 202.132, 86.550 204.266 M 366.750 219.623 C 358.538 224.573, 358.774 226.018, 368.750 231.869 C 373.357 234.571, 374 234.726, 374 233.133 C 374 231.984, 372.164 230.319, 369 228.597 C 362.857 225.253, 362.858 225.146, 369.014 221.750 C 371.756 220.238, 374 218.325, 374 217.500 C 374 215.452, 373.361 215.639, 366.750 219.623 M 5.250 238.153 C -2.055 242.383, 2.197 252, 11.372 252 C 13.544 252, 11.356 248.712, 8.068 247.035 C 2.464 244.176, 2.398 243.437, 7.476 240.461 C 9.964 239.003, 12 237.178, 12 236.405 C 12 234.475, 11.279 234.661, 5.250 238.153 M 409.250 266.115 C 404.825 268.949, 405.066 271.483, 410 274 C 414.573 276.333, 415.869 274.469, 411.750 271.482 L 409.500 269.851 411.750 268.303 C 416.615 264.958, 414.267 262.902, 409.250 266.115" stroke="none" fill="#e2946b" fill-rule="evenodd"/><path d="" stroke="none" fill="#e8cafa" fill-rule="evenodd"/><path d="" stroke="none" fill="#993eba" fill-rule="evenodd"/><path d="M 126.250 75.863 C 122.513 79.062, 122.159 80.033, 125 79.290 C 126.100 79.002, 127 78.343, 127 77.824 C 127 77.306, 127.520 77.203, 128.155 77.595 C 128.885 78.047, 129.037 77.869, 128.568 77.111 C 128.161 76.452, 128.372 75.257, 129.036 74.456 C 130.853 72.267, 129.873 72.762, 126.250 75.863 M 87 86.939 C 87 88.085, 96.429 92.972, 98.677 92.990 C 102.646 93.023, 100.165 89.419, 95.517 88.402 C 92.758 87.798, 89.713 86.962, 88.750 86.545 C 87.656 86.071, 87 86.219, 87 86.939 M 124.175 103.616 C 123.210 115.300, 106.246 133.665, 92.484 137.923 C 88.028 139.302, 87.485 139.730, 88.725 140.888 C 95.758 147.457, 125.844 118.099, 124.732 105.752 C 124.522 103.413, 124.271 102.452, 124.175 103.616 M 169.958 213.773 C 158.277 219.947, 151.497 224.561, 151.227 226.519 C 150.970 228.389, 167.314 239.019, 168.549 237.785 C 168.780 237.554, 165.151 235.158, 160.484 232.462 C 149.536 226.135, 149.332 226.827, 164.751 218.029 C 175.721 211.770, 176.896 211.671, 184.868 216.344 C 188.241 218.320, 191 219.606, 191 219.202 C 191 218.177, 180.970 212.282, 177.925 211.517 C 176.182 211.080, 173.751 211.768, 169.958 213.773" stroke="none" fill="#7b2bb0" fill-rule="evenodd"/><path d="M 122 68.032 C 122 77.803, 122.554 78.563, 127 74.891 C 128.375 73.755, 128.958 73.104, 128.296 73.444 C 127.430 73.888, 127.010 72.194, 126.796 67.391 C 126.261 55.347, 122 55.916, 122 68.032 M 102.388 99.750 C 100.275 106.509, 92.668 114.906, 86.704 117.063 C 83.131 118.354, 81.961 120.240, 83.963 121.477 C 89.098 124.651, 104.414 109.013, 106.869 98.089 C 108.448 91.060, 104.667 92.462, 102.388 99.750 M 220.376 169.316 C 219.323 177.414, 219.318 177.273, 220.649 177.716 C 221.368 177.956, 222.051 176.116, 222.472 172.800 C 222.842 169.885, 223.351 166.766, 223.602 165.868 C 223.854 164.971, 223.412 163.988, 222.620 163.685 C 221.510 163.258, 220.997 164.545, 220.376 169.316 M 200.655 218.829 C 198.835 220.840, 198.467 223, 199.943 223 C 200.951 223, 204 219.075, 204 217.777 C 204 216.422, 202.369 216.935, 200.655 218.829 M 193.114 228.008 C 191.342 230.213, 187.247 234.218, 184.014 236.909 C 178.656 241.368, 177.659 243, 180.295 243 C 181.822 243, 198.992 225.796, 198.408 224.851 C 197.454 223.308, 196.373 223.953, 193.114 228.008 M 172.250 245.674 C 171.012 246.538, 170 247.639, 170 248.122 C 170 249.798, 172.903 248.987, 175.694 246.532 C 179.052 243.578, 176.254 242.881, 172.250 245.674" stroke="none" fill="#9a2ee3" fill-rule="evenodd"/><path d="" stroke="none" fill="#9832d8" fill-rule="evenodd"/><path d="M 119.977 58.957 C 122.525 63.718, 120.723 72.560, 116.249 77.250 C 113.368 80.270, 114.393 80.803, 119.601 78.992 L 122.500 77.984 122.185 68.074 C 121.946 60.526, 121.523 58.031, 120.412 57.605 C 119.252 57.159, 119.163 57.436, 119.977 58.957 M 281.127 62.880 C 281.342 63.526, 283.484 65.228, 285.887 66.661 C 288.635 68.299, 290.088 68.753, 289.804 67.883 C 289.556 67.122, 287.414 65.421, 285.044 64.102 C 282.674 62.783, 280.911 62.233, 281.127 62.880 M 102.396 79.409 C 101.994 80.459, 101.110 80.605, 98.941 79.983 C 97.338 79.523, 95.800 79.515, 95.522 79.964 C 94.239 82.041, 102.304 82.141, 104.371 80.073 C 106.226 78.219, 106.260 78, 104.691 78 C 103.726 78, 102.694 78.634, 102.396 79.409 M 96 85.917 C 96 88.049, 96.483 89, 97.566 89 C 98.677 89, 99.041 88.221, 98.816 86.327 C 98.356 82.434, 96 82.091, 96 85.917 M 323.608 84.825 C 322.995 85.817, 331.533 90.133, 332.399 89.268 C 332.732 88.935, 331.157 87.613, 328.900 86.331 C 324.253 83.692, 324.300 83.705, 323.608 84.825 M 107.667 94.667 C 107.300 95.033, 106.996 96.271, 106.990 97.417 C 106.957 104.510, 98.015 115.778, 89.107 119.950 C 83.941 122.369, 81.613 127, 85.563 127 C 95.207 127, 110.183 110.763, 112.543 97.750 C 113.207 94.088, 110.168 92.166, 107.667 94.667 M 223.904 165.143 C 223.851 165.339, 223.268 168.531, 222.608 172.235 L 221.407 178.970 225.454 180.881 C 230.118 183.083, 230.209 182.990, 231.423 174.750 C 231.808 172.137, 232.291 170, 232.496 170 C 232.702 170, 233.978 170.421, 235.332 170.936 C 236.686 171.451, 238.064 171.603, 238.394 171.273 C 239.285 170.382, 232.885 166.677, 230 166.413 C 228.625 166.288, 226.713 165.870, 225.750 165.485 C 224.787 165.101, 223.957 164.947, 223.904 165.143 M 202.385 220.547 L 200.270 223.732 204.394 225.736 L 208.518 227.740 210.313 225.361 C 212.415 222.573, 212.112 221.854, 207.753 219.282 L 204.499 217.362 202.385 220.547 M 198.423 224.875 C 198.718 225.353, 194.769 229.799, 189.647 234.754 L 180.334 243.764 184.827 245.946 L 189.320 248.129 196.234 241.315 C 200.037 237.567, 203.961 233.375, 204.954 232 L 206.760 229.500 202.322 226.753 C 199.882 225.242, 198.127 224.397, 198.423 224.875 M 174.695 247.368 L 171.889 249.663 176.255 251.979 C 183.377 255.758, 189.304 251.205, 182.632 247.082 C 178.478 244.514, 178.168 244.526, 174.695 247.368 M 195.428 267.117 C 194.676 268.333, 194.662 268.320, 198.693 270.369 C 203.092 272.606, 203.815 270.678, 199.526 268.148 C 197.365 266.873, 195.819 266.484, 195.428 267.117" stroke="none" fill="#9328e6" fill-rule="evenodd"/><path d="M 222.253 34.750 C 217.818 46.087, 190.356 138.800, 190.947 140.440 C 191.984 143.316, 331.546 224.029, 334.951 223.721 C 337.407 223.500, 368.777 126.741, 368.944 118.872 C 369.018 115.406, 374.301 118.744, 307 79.737 C 274.275 60.771, 242.777 42.495, 237.005 39.126 C 225.936 32.665, 223.366 31.903, 222.253 34.750 M 97.994 54.934 C 93.914 56.175, 89.200 58.869, 87.029 61.199 C 83.859 64.601, 84.649 65.130, 88.094 61.912 C 91.072 59.130, 99.129 56.017, 103.432 55.985 C 104.569 55.976, 106.175 55.533, 107 55 C 108.841 53.810, 101.856 53.759, 97.994 54.934 M 235.775 72.250 C 216.977 131.057, 215.151 137.946, 217.750 140.223 C 219.339 141.614, 303.988 190.874, 311.193 194.600 C 315.283 196.715, 338 135.360, 338 122.197 C 338 120.604, 333.705 117.675, 318.250 108.726 C 227.505 56.183, 239.250 61.378, 235.775 72.250 M 89.734 147.539 C 79.172 158.101, 100.684 170.312, 117.793 163.466 C 130.373 158.433, 128.985 143.506, 116.142 145.705 C 110.376 146.692, 104.015 146.660, 97.484 145.610 C 92.830 144.862, 92.271 145.001, 89.734 147.539 M 191.531 163.950 C 190.869 165.021, 194.050 167, 196.434 167 C 198.831 167, 198.298 165.457, 195.453 164.161 C 192.375 162.758, 192.271 162.753, 191.531 163.950 M 185.089 167.407 L 182.678 168.743 185.263 170.436 C 187.687 172.025, 188.049 172.026, 191.104 170.446 L 194.359 168.763 191.930 167.417 C 188.903 165.740, 188.099 165.739, 185.089 167.407 M 201 169.965 C 201 171.444, 204.960 173.230, 206.732 172.549 C 208.103 172.023, 208.061 171.759, 206.403 170.504 C 204.224 168.855, 201 168.533, 201 169.965 M 177.096 171.403 L 174.692 172.735 179.362 175.472 C 183.802 178.074, 184.155 178.129, 186.516 176.581 C 189.731 174.475, 189.707 174.401, 185.040 172.020 C 180.423 169.665, 180.256 169.652, 177.096 171.403 M 193.250 171.220 C 190.330 172.629, 190.405 173.772, 193.509 175.186 C 195.958 176.302, 201 174.825, 201 172.992 C 201 172.431, 196.336 169.857, 195.703 170.068 C 195.591 170.105, 194.488 170.624, 193.250 171.220 M 208.531 173.950 C 207.869 175.021, 211.050 177, 213.434 177 C 215.831 177, 215.298 175.457, 212.453 174.161 C 209.375 172.758, 209.271 172.753, 208.531 173.950 M 173.113 177.106 C 171.738 181.049, 176.418 183.898, 181.090 181.963 C 184.576 180.519, 184.269 179.880, 178.552 176.685 L 174.123 174.209 173.113 177.106 M 200.554 175.726 C 197.775 177.182, 197.724 177.325, 199.507 178.629 C 201.884 180.367, 204.977 180.332, 207.341 178.541 C 210.538 176.119, 204.546 173.634, 200.554 175.726 M 188.569 177.667 L 185.637 179.254 188.414 180.709 C 190.712 181.913, 191.715 181.946, 194.234 180.903 L 197.277 179.643 195.028 177.821 C 192.345 175.649, 192.298 175.648, 188.569 177.667 M 216.104 177.914 C 215.029 178.595, 215.438 179.175, 217.884 180.440 C 221.953 182.544, 224.161 181.397, 220.886 178.879 C 218.134 176.763, 217.973 176.731, 216.104 177.914 M 207.166 180.365 L 204.832 181.660 207.508 183.413 C 210.208 185.182, 216 184.160, 216 181.914 C 216 179.378, 210.640 178.439, 207.166 180.365 M 170.111 183.655 C 169.459 185.087, 169.054 186.336, 169.213 186.432 C 169.371 186.527, 170.764 187.397, 172.308 188.364 C 174.996 190.047, 175.241 190.044, 178.013 188.289 L 180.909 186.455 176.103 183.753 L 171.297 181.052 170.111 183.655 M 195.584 182.315 C 193.893 183.551, 193.942 183.732, 196.395 185.339 C 199.970 187.682, 206.604 184.931, 203.341 182.459 C 201.003 180.687, 197.890 180.629, 195.584 182.315 M 182.659 183.459 C 179.394 185.933, 185.700 188.493, 189.277 186.146 C 191.809 184.486, 191.834 184.377, 189.966 183.211 C 187.447 181.637, 184.951 181.722, 182.659 183.459 M 223 182.640 C 223 183.758, 226.434 185.935, 228.250 185.968 C 230.583 186.011, 230.477 184.326, 228.066 183.035 C 225.910 181.882, 223 181.654, 223 182.640 M 215.250 184.220 C 210.339 186.589, 215.734 190.181, 220.955 188.019 C 224.665 186.482, 224.770 185.672, 221.453 184.161 C 218.460 182.797, 218.196 182.800, 215.250 184.220 M 204.250 186.220 C 201.491 187.551, 201.402 188.609, 203.934 189.965 C 208.280 192.291, 214.108 189.243, 210.559 186.500 C 208.317 184.768, 207.351 184.725, 204.250 186.220 M 191.500 187.178 C 188.510 188.848, 188.494 188.905, 190.573 190.479 C 193.017 192.328, 194.987 192.325, 197.441 190.468 C 200.926 187.832, 195.605 184.885, 191.500 187.178 M 222.566 188.669 C 219.267 190.454, 220.992 193, 225.500 193 C 229.730 193, 231.647 190.567, 228.922 188.658 C 226.091 186.675, 226.249 186.675, 222.566 188.669 M 167.229 189.309 C 164.167 193.283, 165.166 194.306, 169.043 191.166 C 170.959 189.615, 171.064 189.239, 169.727 188.726 C 168.858 188.392, 167.733 188.655, 167.229 189.309 M 180.250 189.220 C 175.757 191.387, 180.357 194.923, 185.109 192.955 C 188.489 191.555, 186.198 186.902, 182.703 188.068 C 182.591 188.105, 181.488 188.624, 180.250 189.220 M 212.198 190.559 C 208.301 192.197, 208.259 192.548, 211.738 194.371 C 214.220 195.671, 220 194.425, 220 192.589 C 220 190.615, 215.098 189.340, 212.198 190.559 M 198.566 191.669 C 195.279 193.448, 197.011 196.037, 201.441 195.968 C 205.635 195.903, 207.375 193.476, 204.553 191.627 C 201.620 189.705, 202.200 189.701, 198.566 191.669 M 169.627 192.984 L 166.754 194.821 169.639 196.313 C 174.280 198.713, 180.060 195.284, 176.250 192.392 C 173.992 190.678, 173.109 190.757, 169.627 192.984 M 187.554 193.726 C 184.775 195.182, 184.724 195.325, 186.507 196.629 C 188.884 198.367, 191.977 198.332, 194.341 196.541 C 197.538 194.119, 191.546 191.634, 187.554 193.726 M 229.232 193.998 C 227.414 195.692, 226.698 195.820, 224.535 194.834 C 222.016 193.686, 217 195.160, 217 197.048 C 217 199.471, 223.202 200.227, 226.015 198.147 C 228.414 196.373, 229.331 196.194, 231.333 197.106 C 234.846 198.707, 240.010 195.486, 237.268 193.405 C 234.725 191.476, 231.700 191.699, 229.232 193.998 M 178.174 196.860 C 174.140 198.770, 174.184 199.025, 179.031 201.793 C 182.836 203.966, 189.036 202.872, 188.992 200.034 C 188.956 197.730, 181.165 195.443, 178.174 196.860 M 205.750 196.080 C 203.353 197.476, 203.553 198.476, 206.500 199.818 C 209.052 200.981, 214 199.698, 214 197.875 C 214 195.594, 208.600 194.420, 205.750 196.080 M 236.839 198.051 C 234.638 199.694, 233.751 199.844, 231.712 198.915 C 228.158 197.295, 222.962 200.493, 225.732 202.595 C 228.304 204.547, 231.707 204.293, 234.023 201.977 C 235.599 200.401, 236.468 200.180, 237.957 200.977 C 242.309 203.306, 248.072 200.326, 244.500 197.594 C 241.838 195.557, 240.034 195.665, 236.839 198.051 M 194.750 198.080 C 192.353 199.476, 192.553 200.476, 195.500 201.818 C 198.052 202.981, 203 201.698, 203 199.875 C 203 197.594, 197.600 196.420, 194.750 198.080 M 212.711 201.013 C 210.559 202.706, 209.748 202.842, 207.617 201.871 C 205.544 200.927, 204.601 201.032, 202.443 202.445 L 199.804 204.174 201.956 205.682 C 204.371 207.373, 208.015 206.842, 210.406 204.451 C 211.631 203.226, 212.393 203.140, 214.067 204.036 C 215.656 204.886, 216.905 204.868, 219.091 203.962 C 222.665 202.482, 222.743 201.660, 219.453 200.161 C 216.070 198.619, 215.693 198.667, 212.711 201.013 M 244.511 202.368 C 242.699 203.693, 242.706 203.773, 244.754 204.868 C 249.100 207.194, 256.027 204.955, 252.489 202.368 C 251.460 201.616, 249.665 201, 248.500 201 C 247.335 201, 245.540 201.616, 244.511 202.368 M 187.606 203.648 L 184.712 205.215 187.606 206.960 C 216.616 224.456, 220.385 226.128, 224.072 223.143 L 226.366 221.286 223.933 219.749 C 214.401 213.731, 193.281 202.007, 192.029 202.040 C 191.188 202.062, 189.198 202.785, 187.606 203.648 M 221.175 204.590 C 218.350 206.568, 219.859 209.017, 223.872 208.968 C 228.852 208.908, 230.705 206.416, 227.141 204.573 C 223.450 202.664, 223.926 202.663, 221.175 204.590 M 233.518 204.363 C 231.735 205.667, 231.767 205.801, 234.250 207.428 C 237.828 209.773, 244.841 206.819, 241.499 204.376 C 239.104 202.624, 235.903 202.619, 233.518 204.363 M 210.175 206.590 C 207.343 208.574, 208.855 211, 212.922 211 C 217.814 211, 219.404 207.961, 215.453 206.161 C 212.336 204.740, 212.879 204.696, 210.175 206.590 M 252.750 206.080 C 250.353 207.476, 250.553 208.476, 253.500 209.818 C 256.052 210.981, 261 209.698, 261 207.875 C 261 205.594, 255.600 204.420, 252.750 206.080 M 265 206.965 C 265 208.444, 268.960 210.230, 270.732 209.549 C 272.103 209.023, 272.061 208.759, 270.403 207.504 C 268.224 205.855, 265 205.533, 265 206.965 M 241.750 208.080 C 237.618 210.487, 242.350 213.926, 247.091 211.962 C 250.482 210.558, 250.605 210.179, 248.250 208.392 C 246.153 206.800, 244.115 206.702, 241.750 208.080 M 227.692 209.434 C 225.971 210.739, 225.994 210.882, 228.164 212.403 C 232.120 215.173, 239.303 212.157, 235.453 209.342 C 233.123 207.639, 230.012 207.676, 227.692 209.434 M 260.191 210.821 L 257.881 212.598 260.390 213.941 C 262.476 215.058, 263.437 215.061, 266.088 213.963 L 269.277 212.643 267.028 210.821 C 264.243 208.567, 263.121 208.567, 260.191 210.821 M 216.573 211.521 C 214.451 213.127, 214.477 213.196, 217.841 214.948 C 220.277 216.217, 226 214.790, 226 212.914 C 226 210.241, 219.529 209.285, 216.573 211.521 M 272.531 210.950 C 271.869 212.021, 275.050 214, 277.434 214 C 279.486 214, 279.418 213.038, 277.250 211.392 C 275.169 209.812, 273.340 209.641, 272.531 210.950 M 249.191 212.821 L 246.881 214.598 249.390 215.941 C 251.468 217.053, 252.443 217.059, 255.056 215.977 L 258.213 214.669 255.856 212.857 C 252.923 210.601, 252.082 210.597, 249.191 212.821 M 236.250 213.220 C 233.491 214.551, 233.402 215.609, 235.934 216.965 C 240.280 219.291, 246.108 216.243, 242.559 213.500 C 240.317 211.768, 239.351 211.725, 236.250 213.220 M 225.250 215.220 C 222.491 216.551, 222.402 217.609, 224.934 218.965 C 229.305 221.304, 235.085 218.336, 231.500 215.594 C 229.163 213.806, 228.291 213.754, 225.250 215.220 M 267.518 215.363 C 265.738 216.665, 265.774 216.806, 268.327 218.478 C 271.693 220.684, 277.199 218.150, 274.944 215.433 C 273.442 213.623, 269.942 213.590, 267.518 215.363 M 280.045 214.972 C 279.062 215.580, 279.571 216.244, 281.969 217.484 C 284.143 218.608, 285.563 218.837, 286.230 218.170 C 287.589 216.811, 281.861 213.850, 280.045 214.972 M 92.750 219.061 C 82.487 225.219, 78.219 221.992, 156.157 267 C 242.349 316.775, 234.371 312.556, 238.897 310.752 C 244.383 308.566, 333.324 257.053, 334.733 255.246 C 336.397 253.111, 335.385 252.060, 326.964 247.185 L 319.987 243.146 288.743 261.159 C 271.560 271.066, 253.178 281.833, 247.896 285.086 C 234.966 293.048, 239.544 294.635, 185.369 263.408 C 159.041 248.233, 129.363 231.133, 119.418 225.408 C 98.379 213.298, 101.226 213.975, 92.750 219.061 M 243.797 217.796 C 241.200 219.509, 241.170 219.625, 243.034 220.789 C 247.633 223.661, 254.115 220.616, 249.642 217.685 C 246.533 215.648, 247.069 215.638, 243.797 217.796 M 256.750 217.080 C 254.345 218.481, 254.555 219.476, 257.540 220.836 C 261.160 222.486, 266.286 219.414, 263.416 217.315 C 261.285 215.757, 259.151 215.682, 256.750 217.080 M 275.122 219.389 L 272.744 220.707 275.095 222.354 C 278.020 224.402, 278.971 224.409, 281.836 222.403 C 286.098 219.417, 280.005 216.682, 275.122 219.389 M 231.501 220.376 C 229.711 221.685, 229.763 221.826, 232.572 223.278 C 236.603 225.363, 242.775 222.771, 239.493 220.371 C 237.098 218.620, 233.900 218.622, 231.501 220.376 M 287 219.879 C 287 221.102, 292.903 223.430, 293.780 222.553 C 294.174 222.159, 293.624 221.198, 292.557 220.418 C 290.404 218.844, 287 218.513, 287 219.879 M 264.250 221.220 C 261.247 222.669, 261.413 223.514, 264.994 224.998 C 267.544 226.054, 268.383 225.979, 270.655 224.490 L 273.322 222.743 270.911 221.407 C 268.041 219.816, 267.210 219.793, 264.250 221.220 M 250.232 222.998 C 248.414 224.692, 247.698 224.820, 245.535 223.834 C 243.042 222.698, 238 224.153, 238 226.008 C 238 228.346, 243.372 228.978, 246.676 227.029 C 249.313 225.473, 250.576 225.238, 252.052 226.028 C 253.486 226.795, 254.802 226.637, 257.171 225.412 L 260.359 223.763 257.930 222.417 C 254.547 220.543, 252.720 220.681, 250.232 222.998 M 281.788 224.087 C 279.658 225.677, 278.652 225.884, 277.095 225.051 C 275.048 223.955, 270 225.431, 270 227.125 C 270 230.071, 276.350 230.650, 279.050 227.950 L 281.101 225.899 284.418 227.950 C 288.291 230.343, 290.883 230.537, 293.493 228.629 C 295.254 227.341, 295.115 227.098, 291.204 224.629 C 286.243 221.497, 285.329 221.445, 281.788 224.087 M 224.072 224.911 L 221.644 226.777 225.931 228.965 C 230.147 231.116, 234.848 230.673, 236.520 227.968 C 238.403 224.922, 227.531 222.252, 224.072 224.911 M 258.206 227.016 C 255.671 228.561, 254.464 228.784, 252.965 227.981 C 251.510 227.203, 250.213 227.356, 247.829 228.588 L 244.641 230.237 247.070 231.583 C 250.453 233.457, 252.280 233.319, 254.768 231.002 C 256.586 229.308, 257.302 229.180, 259.465 230.166 C 261.460 231.075, 262.561 231.038, 264.509 229.995 C 267.649 228.315, 267.638 227.612, 264.453 226.161 C 261.342 224.743, 262.106 224.638, 258.206 227.016 M 234.664 230.617 C 231.980 232.071, 231.927 232.229, 233.664 233.545 C 236.109 235.398, 238.544 235.345, 241.553 233.373 C 246.359 230.224, 240.048 227.699, 234.664 230.617 M 278.692 230.434 C 276.971 231.739, 276.994 231.882, 279.164 233.403 C 282.957 236.059, 290.108 233.014, 286.416 230.315 C 284.121 228.636, 281 228.685, 278.692 230.434 M 265.504 231.373 C 261.659 234.185, 274.468 240.050, 278.576 237.358 L 281.081 235.717 276.076 232.858 C 270.491 229.669, 268.263 229.356, 265.504 231.373 M 254.526 233.357 C 252.608 234.760, 264.282 243.051, 268.058 242.968 C 269.642 242.933, 273.610 240.237, 272.927 239.660 C 266.644 234.355, 257.463 231.210, 254.526 233.357 M 240.270 235.812 C 238.523 236.922, 244.320 240.198, 246.532 239.349 C 248.049 238.767, 247.973 238.485, 245.872 236.868 C 243.257 234.858, 242.112 234.642, 240.270 235.812 M 251.526 237.957 C 250.801 239.132, 256.678 242.317, 258.029 241.482 C 259.651 240.479, 259.130 239.380, 256.453 238.161 C 253.357 236.750, 252.300 236.706, 251.526 237.957 M 248.118 239.906 C 246.177 241.135, 251.326 244.473, 253.736 243.548 C 255.298 242.948, 255.218 242.669, 252.993 240.960 C 250.130 238.760, 249.979 238.728, 248.118 239.906 M 255 244.965 C 255 246.267, 258.389 248, 260.934 248 C 263.771 248, 263.527 246.561, 260.453 245.161 C 257.353 243.748, 255 243.664, 255 244.965" stroke="none" fill="#3e0e8a" fill-rule="evenodd"/><path d="M 126.547 141.923 C 126.233 142.431, 129.303 144.683, 133.370 146.928 C 142.781 152.123, 143.904 153.386, 140.817 155.310 C 123.578 166.053, 111.146 172.401, 107.253 172.448 C 103.896 172.489, 103.006 172.867, 103.003 174.250 C 102.995 178.864, 110.749 176.230, 130 165.078 C 149.384 153.849, 149.724 152.900, 136.998 145.560 C 128.787 140.824, 127.503 140.377, 126.547 141.923 M 386 210.500 C 386 211.458, 386.963 212, 388.663 212 C 391.050 212, 412.319 223.089, 413.454 224.925 C 414.263 226.235, 390.165 239.276, 387.987 238.707 C 385.703 238.110, 385.177 240.470, 387.404 241.325 C 389.812 242.249, 393.136 240.896, 404.738 234.267 C 420.704 225.145, 420.705 225.173, 404.120 215.750 C 392.180 208.966, 386 207.176, 386 210.500 M 25 228.369 C 25 229.403, 25.840 230, 27.294 230 C 29.777 230, 51.161 241.857, 51.640 243.500 C 52.063 244.950, 30.555 257, 27.543 257 C 25.949 257, 25 257.560, 25 258.500 C 25 261.625, 30.720 259.933, 42.051 253.456 C 59.340 243.573, 59.330 243.714, 43.448 234.491 C 31.497 227.551, 25 225.395, 25 228.369 M 330 238.943 C 330 239.462, 334.529 242.451, 340.065 245.586 C 356.570 254.931, 356.367 253.542, 342.436 261.767 C 221.377 333.242, 238.711 328.745, 194.250 300.214 C 192.204 298.901, 192.001 298.939, 192.013 300.635 C 192.049 306.068, 235.291 327.452, 240.644 324.684 C 271.525 308.715, 357.187 256.288, 356.794 253.597 C 356.292 250.159, 330 235.780, 330 238.943 M 421 261.500 C 421 262.325, 421.682 263, 422.515 263 C 424.321 263, 435 268.889, 435 269.885 C 435 270.856, 424.128 277, 422.410 277 C 421.635 277, 421 277.675, 421 278.500 C 421 280.887, 423.820 280.271, 430.904 276.336 C 441.329 270.545, 441.410 269.562, 431.912 264.086 C 424.487 259.806, 421 258.979, 421 261.500" stroke="none" fill="#e77181" fill-rule="evenodd"/><path d="M 106.550 50.878 C 107.073 51.361, 109.740 51.992, 112.477 52.281 C 116.927 52.750, 117.251 52.657, 115.536 51.403 C 113.468 49.890, 104.943 49.393, 106.550 50.878 M 109 54.379 C 109 54.588, 110.163 57.298, 111.584 60.402 C 114.657 67.115, 114.259 72.351, 110.317 77.035 C 107.183 80.760, 109.994 81.366, 114.385 77.912 C 123.046 71.099, 122.037 54, 112.974 54 C 110.788 54, 109 54.171, 109 54.379" stroke="none" fill="#c594fb" fill-rule="evenodd"/><path d="M 81.420 85.973 C 83.253 88.841, 83.442 92.216, 81.945 95.316 C 80.926 97.426, 80.943 97.434, 82.445 95.559 C 84.611 92.855, 84.384 88.658, 81.920 85.861 L 79.840 83.500 81.420 85.973 M 142.500 166.127 C 141.400 166.672, 139.011 169.299, 137.192 171.964 C 131.802 179.857, 122.976 184.865, 114.297 184.956 C 109.205 185.009, 104.315 186.948, 106.222 188.158 C 112.368 192.059, 130.842 185.318, 138.237 176.477 C 140.371 173.925, 145.556 164.871, 144.770 165.068 C 144.622 165.105, 143.600 165.582, 142.500 166.127" stroke="none" fill="#d07796" fill-rule="evenodd"/><path d="M 238.209 38.126 C 238.409 38.727, 241.186 40.758, 244.379 42.638 C 247.573 44.518, 249.994 45.481, 249.761 44.778 C 249.527 44.075, 246.751 42.045, 243.590 40.266 C 240.430 38.487, 238.008 37.524, 238.209 38.126 M 292 66.815 C 292 67.523, 298.259 71, 299.534 71 C 300.975 71, 299.577 69.267, 296.913 67.750 C 293.564 65.844, 292 65.546, 292 66.815 M 94.687 92.734 C 94.438 93.155, 93.916 94.987, 93.526 96.804 C 92.827 100.063, 86.823 107.293, 84.100 108.156 C 83.330 108.400, 82.889 109.166, 83.119 109.858 C 84.331 113.493, 93.990 103.009, 96.051 95.822 C 96.784 93.267, 95.751 90.928, 94.687 92.734 M 188.500 154.575 C 188.500 160.309, 188.838 165, 189.250 165 C 189.662 165, 190 164.598, 190 164.107 C 190 162.628, 193.022 161.941, 194.962 162.980 C 197.169 164.161, 197.966 161.975, 197.986 154.683 C 197.999 150.323, 198.190 149.926, 200 150.500 C 201.131 150.859, 202 150.680, 202 150.088 C 202 148.790, 195.538 145.486, 191.500 144.719 L 188.500 144.150 188.500 154.575 M 169.482 205.675 C 163.438 212.676, 154.667 219.211, 145 223.917 C 135.135 228.719, 137.999 236.563, 148.070 232.328 C 152.395 230.510, 152.362 230.561, 150.819 228.032 C 149.658 226.129, 149.762 225.655, 151.685 224.077 C 155.114 221.264, 173.634 211, 175.281 211 C 176.096 211, 177.892 209.519, 179.272 207.710 L 181.782 204.419 178.036 202.263 L 174.289 200.107 169.482 205.675 M 162.601 219.774 C 152.879 225.397, 151.105 227.210, 154.755 227.793 C 156.565 228.081, 167.704 220.282, 171.405 216.135 C 174.021 213.203, 173.804 213.293, 162.601 219.774 M 162.761 248.200 C 162.187 249.900, 169.985 254.415, 171.272 253.128 C 171.862 252.538, 171.334 251.719, 169.857 250.937 C 168.561 250.250, 166.532 249.061, 165.350 248.295 C 163.612 247.168, 163.116 247.150, 162.761 248.200" stroke="none" fill="#b546db" fill-rule="evenodd"/><path d="M 129.250 56.012 C 133.115 59.040, 133.189 67.296, 129.409 73.746 C 126.354 78.959, 128.712 78.508, 133.352 72.993 C 138.790 66.530, 137.429 59.807, 129.845 55.679 L 126.500 53.858 129.250 56.012 M 237.642 66.771 C 236.804 68.126, 216 136.152, 216 137.535 C 216 139.175, 219.275 141.509, 229.097 146.868 L 236.695 151.013 241.509 144.757 C 244.157 141.315, 246.917 138.006, 247.644 137.403 C 248.698 136.527, 248.463 136.076, 246.483 135.174 C 245.117 134.552, 244 133.358, 244 132.521 C 244 130.823, 246.539 130.445, 247.500 132 C 248.221 133.167, 250.002 133.345, 249.997 132.250 C 249.995 131.838, 247.520 130.166, 244.497 128.535 C 241.473 126.904, 239 124.992, 239 124.285 C 239 122.221, 241.120 122.776, 247.173 126.426 C 251.732 129.175, 252.956 129.557, 253.411 128.371 C 253.722 127.560, 253.613 127.121, 253.168 127.396 C 251.881 128.192, 246 124.186, 246 122.515 C 246 120.419, 247.148 120.611, 251.248 123.394 L 254.776 125.788 256.057 123.394 C 256.761 122.077, 257.800 121, 258.365 121 C 258.930 121, 257.278 119.660, 254.696 118.022 C 247.173 113.252, 248.910 110.971, 256.681 115.415 C 258.981 116.730, 260.663 117.285, 260.419 116.649 C 260.175 116.012, 257.618 114.185, 254.737 112.589 C 246.250 107.884, 243.724 105.876, 244.862 104.738 C 245.550 104.050, 248.397 105.206, 253.680 108.320 C 257.971 110.849, 261.784 112.599, 262.153 112.209 C 263.507 110.777, 272.189 89.426, 272.342 87.151 C 272.579 83.624, 239.304 64.082, 237.642 66.771 M 105 87.139 C 105 89.524, 104.584 90, 102.500 90 C 98.511 90, 99.500 92.656, 103.750 93.358 C 113.734 95.008, 123 93.646, 123 90.528 C 123 88.447, 122.720 88.363, 118.250 89.099 C 110.601 90.358, 110 90.250, 110 87.617 C 110 85.868, 109.334 85.106, 107.500 84.755 C 105.304 84.336, 105 84.626, 105 87.139 M 244 88.351 C 244 89.889, 251.562 95, 253.838 95 C 256.197 95, 254.886 92.953, 250.924 90.452 C 245.286 86.893, 244 86.503, 244 88.351 M 242 92.977 C 242 93.514, 243.148 94.706, 244.551 95.626 C 248.001 97.886, 250.212 95.963, 246.862 93.616 C 244.273 91.802, 242 91.504, 242 92.977 M 257.583 95.866 C 256.621 97.422, 264.057 102.610, 265.369 101.298 C 266.619 100.047, 265.945 98.937, 262.750 96.989 C 259.121 94.777, 258.359 94.611, 257.583 95.866 M 246.181 100.704 C 246.585 102.800, 257.495 109.430, 259.005 108.497 C 260.624 107.496, 258.641 105.514, 252.511 102.006 C 246.433 98.529, 245.735 98.385, 246.181 100.704 M 356.648 106.685 C 356.293 107.040, 358.365 108.662, 361.251 110.290 C 368.396 114.317, 370 115.882, 370 118.822 C 370 123.007, 371.075 120.557, 371.360 115.723 C 371.563 112.271, 371.308 111.328, 370.278 111.724 C 369.536 112.008, 366.311 110.846, 363.112 109.140 C 359.912 107.435, 357.003 106.330, 356.648 106.685 M 243 110.339 C 243 111.442, 246.877 114, 248.547 114 C 249.873 114, 248.723 110.922, 247.066 110.035 C 244.435 108.627, 243 108.735, 243 110.339 M 121.586 116.582 C 117.148 125.074, 108.704 133.023, 98.916 137.922 C 94.323 140.221, 90.404 142.262, 90.208 142.458 C 89.392 143.275, 101.172 146, 105.520 146 C 109.308 146, 111.140 145.332, 114.866 142.591 C 123.825 136, 123.983 135.678, 124.681 122.655 C 125.403 109.186, 125.426 109.232, 121.586 116.582 M 242.018 113.989 C 241.194 114.498, 241.567 115.300, 243.237 116.611 C 249.491 121.522, 256.400 123.596, 253.046 119.556 C 251.003 117.094, 243.292 113.201, 242.018 113.989 M 240 119.393 C 240 120.703, 242.030 122, 244.082 122 C 245.635 122, 245.097 119.251, 243.418 118.607 C 240.954 117.661, 240 117.881, 240 119.393 M 366.667 131.167 C 365.148 136.156, 364.080 140.413, 364.293 140.626 C 364.506 140.839, 365.931 136.939, 367.458 131.958 C 368.986 126.978, 370.054 122.721, 369.832 122.499 C 369.610 122.277, 368.186 126.177, 366.667 131.167 M 237.550 127.919 C 236.825 129.092, 239.691 132, 241.571 132 C 243.542 132, 243.363 129.996, 241.250 128.392 C 239.154 126.801, 238.308 126.693, 237.550 127.919 M 236 133.474 C 236 134.890, 240.776 138, 242.950 138 C 245.056 138, 243.925 135.387, 241.096 133.716 C 237.534 131.612, 236 131.539, 236 133.474 M 230 135.259 C 230 136.966, 240.279 143.081, 241.363 142.019 C 242.665 140.744, 241.451 139.423, 236.365 136.580 C 231.180 133.683, 230 133.438, 230 135.259 M 169.441 175.500 C 167.520 176.985, 167.520 177.015, 169.446 178.504 C 171.575 180.148, 172.421 179.672, 173.455 176.250 C 174.265 173.568, 172.394 173.218, 169.441 175.500 M 162.094 179.647 L 159.742 181.294 163.621 183.642 C 168.467 186.575, 168.784 186.567, 170.190 183.483 C 172.218 179.032, 166.702 176.419, 162.094 179.647 M 154.752 183.841 C 149.495 187.014, 155.397 190.397, 161.070 187.464 L 164.346 185.770 161.923 183.907 C 159.033 181.685, 158.335 181.679, 154.752 183.841 M 161.625 188.638 L 158.749 190.195 161.625 192.091 C 164.660 194.092, 166.473 194.575, 165.591 193.147 C 165.301 192.678, 165.710 191.441, 166.500 190.397 C 169.326 186.664, 166.891 185.785, 161.625 188.638 M 294.687 206.759 C 294.455 207.167, 293.492 209.871, 292.546 212.769 L 290.826 218.039 293.163 219.955 C 295.452 221.831, 295.460 221.900, 293.563 223.308 C 291.666 224.717, 291.671 224.761, 293.813 225.441 C 296.981 226.446, 296.497 228.556, 292.750 230.073 C 286.638 232.548, 284.029 235.359, 278.496 245.426 C 275.451 250.967, 270.250 259.268, 266.937 263.874 C 261.218 271.827, 261.080 272.151, 264.207 270.316 C 266.018 269.253, 273.181 265.118, 280.125 261.127 L 292.749 253.869 297.795 243.185 C 300.571 237.308, 304.278 228.352, 306.034 223.283 L 309.228 214.066 312.181 215.594 C 318.668 218.948, 317.749 216.238, 311.039 212.225 C 307.107 209.874, 303.513 208.183, 303.051 208.468 C 302.590 208.753, 300.614 208.319, 298.660 207.502 C 296.706 206.686, 294.918 206.351, 294.687 206.759 M 193 220.305 C 193 220.578, 198.063 223.763, 204.250 227.384 C 219.651 236.397, 218.595 235.579, 217.120 237.356 C 209.452 246.595, 192.845 251.204, 184.346 246.451 C 176.182 241.885, 176.116 242.628, 184.250 247.543 C 192.785 252.701, 194.492 252.511, 207.739 244.931 C 221.982 236.781, 222.072 236.231, 210.243 229.593 C 205.435 226.895, 199.588 223.590, 197.250 222.248 C 194.912 220.907, 193 220.033, 193 220.305" stroke="none" fill="#56189c" fill-rule="evenodd"/><path d="M 80 81.308 C 80 82.581, 86.261 89, 87.503 89 C 88.769 89, 86.071 84.903, 83.250 82.542 C 80.930 80.600, 80 80.247, 80 81.308" stroke="none" fill="#97537b" fill-rule="evenodd"/><path d="M 244.821 89.284 C 246.815 91.687, 254.001 95.236, 253.992 93.814 C 253.988 93.091, 252.211 91.487, 250.044 90.250 C 245.573 87.697, 243.128 87.245, 244.821 89.284 M 239 123.951 C 239 124.980, 251.848 132.486, 252.497 131.836 C 253.335 130.998, 251.282 129.244, 245.878 126.184 C 239.823 122.754, 239 122.487, 239 123.951" stroke="none" fill="#f8359e" fill-rule="evenodd"/><path d="M 116.241 4.180 C 112.114 10.221, 110.704 15.238, 111.202 22.121 C 111.794 30.298, 113.528 31.606, 113.738 24.035 C 113.836 20.513, 115.103 14.515, 116.853 9.298 C 120.301 -0.982, 120.222 -1.647, 116.241 4.180 M 103.252 22.750 C 100.982 27.921, 101.070 38.218, 103.439 44.670 L 105.337 49.839 111.024 50.170 L 116.710 50.500 111.105 41.500 C 105.741 32.888, 105.500 32.209, 105.500 25.752 C 105.500 17.895, 105.426 17.796, 103.252 22.750 M 258.504 97.007 C 259.477 98.581, 265 101.169, 265 100.051 C 265 99.501, 263.672 98.365, 262.050 97.526 C 258.611 95.748, 257.638 95.605, 258.504 97.007 M 246.462 100.939 C 247.098 101.967, 257.323 108, 258.431 108 C 260.050 108, 257.583 105.908, 252.607 103.061 C 247.054 99.884, 245.473 99.338, 246.462 100.939 M 270 103.385 C 270 104.412, 272.481 106.043, 278.250 108.807 C 281.348 110.292, 278.049 106.639, 274.500 104.656 C 271.592 103.030, 270 102.581, 270 103.385 M 251.450 114.920 C 252.300 116.294, 261.224 121.109, 261.819 120.515 C 262.459 119.875, 262.421 119.843, 257.270 116.635 C 253.014 113.984, 250.395 113.212, 251.450 114.920 M 246.504 123.007 C 247.477 124.581, 253 127.169, 253 126.051 C 253 125.501, 251.672 124.365, 250.050 123.526 C 246.611 121.748, 245.638 121.605, 246.504 123.007 M 256 128.458 C 256 129.013, 264.403 134, 265.338 134 C 267.105 134, 265.590 132.274, 262.044 130.250 C 258.319 128.123, 256 127.435, 256 128.458 M 245 132.816 C 245 133.265, 246.800 134.643, 249 135.880 C 253.837 138.599, 254.391 137.023, 249.632 134.082 C 245.978 131.823, 245 131.556, 245 132.816 M 256.550 139.867 C 258.807 141.927, 267 146.100, 267 145.190 C 267 144.033, 258.764 139, 256.872 139 C 256.090 139, 255.966 139.334, 256.550 139.867" stroke="none" fill="#ffffff" fill-rule="evenodd"/><path d="" stroke="none" fill="#ca6ebe" fill-rule="evenodd"/><path d="M 89.967 60.376 C 84.719 63.942, 83.412 66.963, 85.430 70.864 C 87.507 74.881, 87.631 74.819, 87.170 69.988 C 86.829 66.411, 87.219 65.546, 90.776 61.988 C 95.313 57.452, 95.048 56.924, 89.967 60.376 M 137.116 70.421 C 136.779 75.999, 122.960 84, 113.662 84 C 110.260 84, 110 84.213, 110 87 C 110 90.323, 110.319 90.404, 118.250 89.099 C 122.403 88.415, 123 88.537, 123 90.065 C 123 91.247, 123.575 91.662, 124.775 91.349 C 127.820 90.552, 124.997 133.305, 121.778 136.747 C 116.792 142.077, 110.316 145.998, 106.366 146.079 C 104.240 146.122, 103.135 146.409, 103.911 146.716 C 107.401 148.096, 121.937 144.832, 125.741 141.813 C 130.970 137.665, 130.629 139.108, 132.907 111.474 C 134.040 97.738, 135.700 83.333, 136.597 79.463 C 137.495 75.593, 138.004 71.543, 137.730 70.463 C 137.250 68.570, 137.228 68.568, 137.116 70.421 M 272.114 88.896 C 271.501 90.878, 269.028 97, 266.620 102.500 C 264.038 108.397, 262.602 112.890, 263.121 113.450 C 264.829 115.295, 264.093 117.258, 261.908 116.686 C 259.924 116.167, 259.903 116.236, 261.506 118.007 C 263.623 120.345, 262.605 122.190, 259.612 121.439 C 257.393 120.882, 254.463 124.983, 252.559 131.313 C 252.260 132.311, 251.561 132.847, 251.007 132.504 C 250.453 132.162, 250 132.328, 250 132.874 C 250 133.419, 250.926 134.159, 252.057 134.518 C 254.380 135.255, 254.268 138.729, 251.941 138.128 C 251.148 137.924, 249.825 137.568, 249 137.337 C 248.052 137.073, 245.531 139.511, 242.152 143.958 C 238.998 148.111, 236.332 150.733, 235.652 150.352 C 234.886 149.923, 234.835 150.039, 235.500 150.697 C 237.021 152.204, 310.075 194.207, 312.091 194.734 C 314.003 195.234, 313.742 195.980, 328.966 146.407 C 337.582 118.352, 340.707 123.813, 304.066 102.896 L 273.229 85.292 272.114 88.896 M 269 103.415 C 269 105.324, 278.057 110.343, 279.286 109.114 C 280.653 107.747, 279.381 106.235, 274.972 103.986 C 270.361 101.633, 269 101.503, 269 103.415 M 302 110.140 C 302 111.507, 304.999 113.924, 306.750 113.968 C 308.981 114.025, 308.071 111.353, 305.453 110.161 C 302.295 108.722, 302 108.720, 302 110.140 M 282.640 111.505 C 283.141 112.810, 299.765 122.822, 304.360 124.585 C 310.176 126.817, 304.542 121.244, 295.750 116.069 C 285.423 109.991, 281.541 108.639, 282.640 111.505 M 371.483 112.202 C 371.120 113.138, 371.069 114.302, 371.369 114.788 C 371.669 115.274, 371.523 116.983, 371.043 118.586 C 370.177 121.484, 370.171 121.486, 370.086 118.905 C 370.004 116.418, 368.208 114.172, 365 112.542 C 364.175 112.123, 364.807 112.878, 366.405 114.220 C 369.042 116.433, 369.254 117.068, 368.699 121.080 C 368.292 124.024, 368.384 124.832, 368.974 123.500 C 370.743 119.505, 369.965 123.698, 367.344 132.286 C 365.869 137.118, 364.372 140.602, 364.017 140.027 C 363.662 139.452, 362.588 141.465, 361.632 144.500 C 360.675 147.534, 360.144 150.425, 360.452 150.923 C 360.760 151.421, 360.606 151.980, 360.109 152.165 C 359.612 152.349, 354.299 168.475, 348.302 188 C 335.169 230.764, 338.815 227.919, 315.250 213.786 C 313.462 212.714, 312 212.054, 312 212.320 C 312 212.586, 313.462 213.740, 315.250 214.885 C 319.114 217.360, 316.590 217.873, 312.064 215.533 L 309.228 214.066 306.039 223.283 C 304.285 228.352, 300.662 237.113, 297.986 242.750 C 295.311 248.387, 293.324 253, 293.570 253 C 294.074 253, 331.949 231.179, 333.500 229.994 C 334.050 229.574, 335.966 228.917, 337.758 228.534 C 341.704 227.690, 375 128.035, 375 117.069 C 375 113.349, 372.422 109.781, 371.483 112.202 M 310 114.943 C 310 115.951, 313.925 119, 315.223 119 C 316.802 119, 315.937 116.037, 314.066 115.035 C 311.656 113.746, 310 113.708, 310 114.943 M 318 119.974 C 318 121.403, 323.778 124.168, 324.460 123.065 C 325.104 122.023, 321.249 119, 319.277 119 C 318.575 119, 318 119.438, 318 119.974 M 264 122.465 C 264 123.922, 266.901 126, 268.934 126 C 270.740 126, 270.112 123.130, 268.066 122.035 C 265.378 120.597, 264 120.742, 264 122.465 M 255.247 128.250 C 255.915 130.271, 264.951 135.449, 265.993 134.407 C 267.244 133.156, 266.180 131.807, 261.882 129.197 C 257.893 126.775, 254.604 126.305, 255.247 128.250 M 255.894 139.803 C 257.031 141.927, 266.409 147.257, 267.352 146.315 C 268.847 144.819, 267.721 143.345, 263.102 140.750 C 257.266 137.472, 254.449 137.102, 255.894 139.803 M 270.406 147.152 C 269.563 148.517, 272.630 151, 275.160 151 C 277.361 151, 276.572 148.377, 273.948 146.972 C 271.631 145.732, 271.272 145.750, 270.406 147.152 M 277.250 211.358 C 279.500 213.110, 279.454 213.648, 277 214.290 C 275.900 214.577, 275 214.330, 275 213.740 C 275 213.150, 274.711 212.956, 274.357 213.309 C 274.004 213.663, 274.251 214.597, 274.906 215.387 C 275.718 216.365, 275.763 217.028, 275.049 217.470 C 274.472 217.826, 274.007 218.654, 274.015 219.309 C 274.026 220.120, 274.301 220.074, 274.877 219.165 C 275.343 218.430, 276.011 217.868, 276.362 217.915 C 278.587 218.212, 280 217.869, 280 217.031 C 280 216.499, 279.325 216.322, 278.500 216.638 C 277.675 216.955, 277 216.716, 277 216.107 C 277 215.498, 277.916 215, 279.035 215 C 281.532 215, 280.180 211.628, 277.278 210.615 C 275.590 210.027, 275.589 210.064, 277.250 211.358 M 259.367 213.750 C 260.057 214.898, 258.893 215.479, 256.676 215.094 C 256.222 215.015, 256.076 215.314, 256.350 215.758 C 256.625 216.202, 258.639 216.465, 260.827 216.343 C 265.191 216.099, 265.952 217.852, 262.559 220.333 C 260.979 221.488, 260.954 221.667, 262.368 221.667 C 263.265 221.667, 264 221.336, 264 220.933 C 264 220.529, 265.350 220.293, 267 220.407 C 270.446 220.646, 270.706 220.237, 268.250 218.441 C 267.288 217.737, 266.495 216.562, 266.489 215.831 C 266.482 215.017, 265.584 214.626, 264.179 214.823 C 262.915 215.001, 261.146 214.551, 260.248 213.823 C 259.064 212.863, 258.822 212.843, 259.367 213.750 M 284.160 215.525 C 286.116 216.587, 286.678 217.517, 286.281 219.034 L 285.741 221.099 283.770 218.983 C 282.686 217.820, 281.507 217.159, 281.151 217.516 C 280.795 217.872, 281.334 218.771, 282.348 219.513 C 284.126 220.813, 284.117 220.910, 282.097 222.172 C 278.677 224.307, 279.712 225.101, 283.475 223.229 C 285.387 222.278, 286.962 220.938, 286.975 220.250 C 287.015 218.262, 290.800 218.800, 293.125 221.125 C 294.294 222.294, 295.054 222.631, 294.815 221.875 C 294.576 221.119, 293.058 219.821, 291.440 218.991 C 289.823 218.162, 287.387 216.699, 286.027 215.741 C 284.668 214.784, 283.093 214.018, 282.527 214.040 C 281.962 214.062, 282.697 214.730, 284.160 215.525 M 254.094 216.676 C 254.447 218.712, 253.914 220.065, 252.984 219.490 C 252.425 219.144, 252.226 218.443, 252.543 217.931 C 252.859 217.419, 252.622 217, 252.015 217 C 251.409 217, 250.985 217.563, 251.075 218.250 C 251.419 220.901, 250.955 222.090, 249.845 221.405 C 249.082 220.933, 248.965 221.134, 249.498 221.997 C 250.144 223.042, 250.532 222.993, 251.439 221.752 C 252.424 220.406, 252.997 220.379, 255.787 221.552 C 257.554 222.295, 259 222.505, 259 222.019 C 259 221.533, 258.067 220.839, 256.928 220.477 C 255.709 220.090, 255.073 219.252, 255.384 218.442 C 255.675 217.684, 255.471 216.791, 254.932 216.458 C 254.392 216.124, 254.015 216.222, 254.094 216.676 M 263.403 225.309 C 264.449 225.964, 266.012 227.287, 266.875 228.250 C 267.738 229.213, 269.132 230.014, 269.972 230.031 C 270.813 230.048, 273.300 231.171, 275.500 232.526 C 279.860 235.211, 282.797 235.947, 279.256 233.467 C 276.107 231.261, 279.089 227.974, 283.217 229.100 C 288.003 230.406, 288.465 231.126, 285.886 233.266 L 283.500 235.246 286 233.620 C 287.375 232.726, 290.188 231.272, 292.250 230.389 C 296.204 228.696, 297.107 226.639, 294.359 225.584 C 293.017 225.069, 292.938 225.220, 293.923 226.407 C 296.352 229.334, 289.071 231.235, 285.483 228.611 C 284.438 227.847, 282.929 227.474, 282.128 227.781 C 281.191 228.141, 280.930 227.923, 281.395 227.170 C 281.793 226.526, 281.672 226, 281.126 226 C 280.581 226, 279.873 226.825, 279.553 227.833 C 278.534 231.043, 271.484 230.227, 269.929 226.720 L 268.944 224.500 269.378 226.750 C 269.927 229.591, 269.658 229.567, 266.591 226.500 C 265.216 225.125, 263.508 224.026, 262.795 224.059 C 262.037 224.093, 262.289 224.612, 263.403 225.309 M 256.694 229.639 C 255.774 230.560, 256.879 232, 258.505 232 C 259.977 232, 272.134 238.794, 273.026 240.115 C 273.316 240.544, 274.216 240.475, 275.026 239.963 C 275.837 239.450, 276.050 239.020, 275.500 239.006 C 272.831 238.940, 264.098 232.909, 264.637 231.504 C 264.952 230.683, 265.682 230.303, 266.259 230.660 C 266.912 231.064, 267.007 230.821, 266.511 230.018 C 265.910 229.046, 265.235 229.316, 263.770 231.114 C 262.701 232.426, 262.117 232.938, 262.472 232.250 C 263.092 231.050, 261.314 230.514, 258.150 230.948 C 257.407 231.050, 257.096 230.654, 257.459 230.067 C 258.183 228.895, 257.705 228.628, 256.694 229.639 M 253.384 232.443 C 252.964 233.536, 252.231 233.658, 250.358 232.946 C 248.734 232.328, 248.097 232.348, 248.502 233.003 C 248.841 233.551, 249.781 234, 250.590 234 C 251.400 234, 252.306 234.634, 252.603 235.408 C 252.900 236.183, 254.485 237.372, 256.124 238.051 C 258.125 238.880, 258.915 239.778, 258.529 240.784 C 258.080 241.954, 258.254 242.034, 259.319 241.150 C 260.070 240.527, 260.980 240.313, 261.342 240.675 C 261.704 241.037, 262 241.076, 262 240.762 C 262 240.447, 259.992 239.014, 257.539 237.576 C 254.537 235.817, 253.263 234.479, 253.644 233.486 C 253.955 232.675, 254.682 232.303, 255.259 232.660 C 255.872 233.039, 256.012 232.829, 255.595 232.155 C 254.648 230.621, 254.053 230.699, 253.384 232.443 M 292.500 256.291 C 269.400 269.616, 248.131 281.977, 245.235 283.760 C 242.339 285.542, 239.543 287, 239.020 287 C 238.498 287, 237.589 287.900, 237 289 C 235.238 292.292, 237.531 291.469, 247.896 285.086 C 265.088 274.500, 319.695 243.294, 322.129 242.665 C 323.433 242.327, 325.807 240.915, 327.406 239.526 C 329.004 238.137, 330.861 237, 331.533 237 C 333.091 237, 335.296 234.380, 334.845 233.065 C 334.655 232.513, 315.600 242.965, 292.500 256.291 M 252.899 240.839 C 255.009 242.505, 255.103 242.843, 253.675 243.642 C 252.209 244.463, 252.232 244.664, 253.916 245.716 C 255.537 246.728, 255.713 246.617, 255.256 244.870 C 254.746 242.920, 254.846 242.907, 258.615 244.426 C 261.913 245.754, 262.207 245.765, 260.559 244.495 C 259.491 243.673, 258.029 243, 257.309 243 C 256.589 243, 256 242.622, 256 242.161 C 256 241.699, 254.762 240.786, 253.250 240.133 L 250.500 238.945 252.899 240.839" stroke="none" fill="#3b0f95" fill-rule="evenodd"/></svg>